<?xml version="1.0"?>
	<!DOCTYPE svg PUBLIC "-//W3C//DTD SVG 1.1//EN"
	"http://www.w3.org/Graphics/SVG/1.1/DTD/svg11.dtd">

	<svg xmlns="http://www.w3.org/2000/svg" version="1.1"
	x="0" y="0" width="100%" height="100%"><text x="660" y="100">1</text>
<text x="340" y="200">0</text>
<line x1="345" y1="185" x2="665" y2="105" style="stroke:gray;stroke-width:1" />
<text x="980" y="200">1</text>
<line x1="985" y1="185" x2="665" y2="105" style="stroke:gray;stroke-width:1" />
<text x="180" y="300">0</text>
<line x1="185" y1="285" x2="345" y2="205" style="stroke:gray;stroke-width:1" />
<text x="500" y="300">1</text>
<line x1="505" y1="285" x2="345" y2="205" style="stroke:gray;stroke-width:1" />
<text x="820" y="300">0</text>
<line x1="825" y1="285" x2="985" y2="205" style="stroke:gray;stroke-width:1" />
<text x="1140" y="300">1</text>
<line x1="1145" y1="285" x2="985" y2="205" style="stroke:gray;stroke-width:1" />
<text x="100" y="400">0</text>
<line x1="105" y1="385" x2="185" y2="305" style="stroke:gray;stroke-width:1" />
<text x="260" y="400">1</text>
<line x1="265" y1="385" x2="185" y2="305" style="stroke:gray;stroke-width:1" />
<text x="420" y="400">0</text>
<line x1="425" y1="385" x2="505" y2="305" style="stroke:gray;stroke-width:1" />
<text x="580" y="400">1</text>
<line x1="585" y1="385" x2="505" y2="305" style="stroke:gray;stroke-width:1" />
<text x="740" y="400">0</text>
<line x1="745" y1="385" x2="825" y2="305" style="stroke:gray;stroke-width:1" />
<text x="900" y="400">1</text>
<line x1="905" y1="385" x2="825" y2="305" style="stroke:gray;stroke-width:1" />
<text x="1060" y="400">0</text>
<line x1="1065" y1="385" x2="1145" y2="305" style="stroke:gray;stroke-width:1" />
<text x="1220" y="400">1</text>
<line x1="1225" y1="385" x2="1145" y2="305" style="stroke:gray;stroke-width:1" />
<text x="60" y="500">0</text>
<line x1="65" y1="485" x2="105" y2="405" style="stroke:gray;stroke-width:1" />
<text x="140" y="500">1</text>
<line x1="145" y1="485" x2="105" y2="405" style="stroke:gray;stroke-width:1" />
<text x="220" y="500">0</text>
<line x1="225" y1="485" x2="265" y2="405" style="stroke:gray;stroke-width:1" />
<text x="300" y="500">1</text>
<line x1="305" y1="485" x2="265" y2="405" style="stroke:gray;stroke-width:1" />
<text x="380" y="500">0</text>
<line x1="385" y1="485" x2="425" y2="405" style="stroke:gray;stroke-width:1" />
<text x="460" y="500">1</text>
<line x1="465" y1="485" x2="425" y2="405" style="stroke:gray;stroke-width:1" />
<text x="540" y="500">0</text>
<line x1="545" y1="485" x2="585" y2="405" style="stroke:gray;stroke-width:1" />
<text x="620" y="500">1</text>
<line x1="625" y1="485" x2="585" y2="405" style="stroke:gray;stroke-width:1" />
<text x="700" y="500">0</text>
<line x1="705" y1="485" x2="745" y2="405" style="stroke:gray;stroke-width:1" />
<text x="780" y="500">1</text>
<line x1="785" y1="485" x2="745" y2="405" style="stroke:gray;stroke-width:1" />
<text x="860" y="500">0</text>
<line x1="865" y1="485" x2="905" y2="405" style="stroke:gray;stroke-width:1" />
<text x="940" y="500">1</text>
<line x1="945" y1="485" x2="905" y2="405" style="stroke:gray;stroke-width:1" />
<text x="1020" y="500">0</text>
<line x1="1025" y1="485" x2="1065" y2="405" style="stroke:gray;stroke-width:1" />
<text x="1100" y="500">1</text>
<line x1="1105" y1="485" x2="1065" y2="405" style="stroke:gray;stroke-width:1" />
<text x="1180" y="500">0</text>
<line x1="1185" y1="485" x2="1225" y2="405" style="stroke:gray;stroke-width:1" />
<text x="1260" y="500">1</text>
<line x1="1265" y1="485" x2="1225" y2="405" style="stroke:gray;stroke-width:1" />
<text x="40" y="600">0</text>
<line x1="45" y1="585" x2="65" y2="505" style="stroke:gray;stroke-width:1" />
<text x="80" y="600">1</text>
<line x1="85" y1="585" x2="65" y2="505" style="stroke:gray;stroke-width:1" />
<text x="120" y="600">0</text>
<line x1="125" y1="585" x2="145" y2="505" style="stroke:gray;stroke-width:1" />
<text x="160" y="600">1</text>
<line x1="165" y1="585" x2="145" y2="505" style="stroke:gray;stroke-width:1" />
<text x="200" y="600">0</text>
<line x1="205" y1="585" x2="225" y2="505" style="stroke:gray;stroke-width:1" />
<text x="240" y="600">1</text>
<line x1="245" y1="585" x2="225" y2="505" style="stroke:gray;stroke-width:1" />
<text x="280" y="600">0</text>
<line x1="285" y1="585" x2="305" y2="505" style="stroke:gray;stroke-width:1" />
<text x="320" y="600">1</text>
<line x1="325" y1="585" x2="305" y2="505" style="stroke:gray;stroke-width:1" />
<text x="360" y="600">0</text>
<line x1="365" y1="585" x2="385" y2="505" style="stroke:gray;stroke-width:1" />
<text x="400" y="600">1</text>
<line x1="405" y1="585" x2="385" y2="505" style="stroke:gray;stroke-width:1" />
<text x="440" y="600">0</text>
<line x1="445" y1="585" x2="465" y2="505" style="stroke:gray;stroke-width:1" />
<text x="480" y="600">1</text>
<line x1="485" y1="585" x2="465" y2="505" style="stroke:gray;stroke-width:1" />
<text x="520" y="600">0</text>
<line x1="525" y1="585" x2="545" y2="505" style="stroke:gray;stroke-width:1" />
<text x="560" y="600">1</text>
<line x1="565" y1="585" x2="545" y2="505" style="stroke:gray;stroke-width:1" />
<text x="600" y="600">0</text>
<line x1="605" y1="585" x2="625" y2="505" style="stroke:gray;stroke-width:1" />
<text x="640" y="600">1</text>
<line x1="645" y1="585" x2="625" y2="505" style="stroke:gray;stroke-width:1" />
<text x="680" y="600">0</text>
<line x1="685" y1="585" x2="705" y2="505" style="stroke:gray;stroke-width:1" />
<text x="720" y="600">1</text>
<line x1="725" y1="585" x2="705" y2="505" style="stroke:gray;stroke-width:1" />
<text x="760" y="600">0</text>
<line x1="765" y1="585" x2="785" y2="505" style="stroke:gray;stroke-width:1" />
<text x="800" y="600">1</text>
<line x1="805" y1="585" x2="785" y2="505" style="stroke:gray;stroke-width:1" />
<text x="840" y="600">0</text>
<line x1="845" y1="585" x2="865" y2="505" style="stroke:gray;stroke-width:1" />
<text x="880" y="600">1</text>
<line x1="885" y1="585" x2="865" y2="505" style="stroke:gray;stroke-width:1" />
<text x="920" y="600">0</text>
<line x1="925" y1="585" x2="945" y2="505" style="stroke:gray;stroke-width:1" />
<text x="960" y="600">1</text>
<line x1="965" y1="585" x2="945" y2="505" style="stroke:gray;stroke-width:1" />
<text x="1000" y="600">0</text>
<line x1="1005" y1="585" x2="1025" y2="505" style="stroke:gray;stroke-width:1" />
<text x="1040" y="600">1</text>
<line x1="1045" y1="585" x2="1025" y2="505" style="stroke:gray;stroke-width:1" />
<text x="1080" y="600">0</text>
<line x1="1085" y1="585" x2="1105" y2="505" style="stroke:gray;stroke-width:1" />
<text x="1120" y="600">1</text>
<line x1="1125" y1="585" x2="1105" y2="505" style="stroke:gray;stroke-width:1" />
<text x="1160" y="600">0</text>
<line x1="1165" y1="585" x2="1185" y2="505" style="stroke:gray;stroke-width:1" />
<text x="1200" y="600">1</text>
<line x1="1205" y1="585" x2="1185" y2="505" style="stroke:gray;stroke-width:1" />
<text x="1240" y="600">0</text>
<line x1="1245" y1="585" x2="1265" y2="505" style="stroke:gray;stroke-width:1" />
<text x="1280" y="600">1</text>
<line x1="1285" y1="585" x2="1265" y2="505" style="stroke:gray;stroke-width:1" />
</svg>